<svg width="307" height="30" viewBox="0 0 307 30" fill="none" xmlns="http://www.w3.org/2000/svg">
<path fill-rule="evenodd" clip-rule="evenodd" d="M201.201 0.770759V10.8983H198.715C197.787 6.77622 195.261 1.94718 189.154 1.94718C181.507 1.94718 179.936 7.83177 179.936 15.0468C179.936 21.9753 181.354 27.9336 188.966 27.9336C194.913 27.9336 198.928 24.2189 198.928 19.1431H201.546C201.546 26.1139 195.84 30 188.456 30C178.999 30 169.384 23.3695 169.384 15.0476C169.384 6.84991 178.686 0 187.684 0C192.37 0 194.931 1.18089 196.468 1.88999C197.128 2.19423 197.599 2.41162 197.969 2.41162C199.223 2.41162 199.499 1.63673 199.55 0.770759H201.201ZM3.05176e-05 28.0113V30H30.0176V18.4831H27.5387V19.7295C27.5387 26.3061 22.2859 28.0113 15.7004 28.0113H14.5239V3.05756H20.0465V1.07139H3.05176e-05V3.05756H5.01332V28.0113H3.05176e-05ZM68.753 28.0083L53.9282 1.07139H50.1942L37.4344 25.5546C36.6477 27.1726 34.9587 28.1446 33.1722 28.0075H32.1618V29.9991H44.1302V28.0075H41.9648C40.7112 28.0075 39.6189 27.8579 39.6189 26.5005C39.6618 26.0587 39.8128 25.6344 40.0585 25.2656L41.7659 21.9291H54.707L57.9555 28.0083H53.1768V30H72.8998V28.0075H68.7547L68.753 28.0083ZM42.8012 19.9535L48.0186 10.1211H48.444L53.669 19.9535H42.8012ZM91.1247 30V28.0113H92.5675C94.2991 28.0113 95.9263 27.5617 95.9263 25.0589V6.29263C95.9263 4.33079 94.016 3.0584 92.1467 3.0584H91.2976V1.07139H105.685L121.548 18.1627H121.663V5.39265C121.663 3.81663 120.315 3.05756 117.835 3.05756H116.351V1.07139H128.647V3.05756H127.439C124.894 3.05756 123.848 4.23181 123.848 5.26516V30H119.741L98.1956 6.70446H98.0829V25.2736C98.0829 27.6146 99.3211 28.0113 102.435 28.0113H103.398V30H91.1247ZM165.246 28.0083L150.442 1.07139H146.699L133.922 25.5546C133.141 27.1781 131.448 28.1525 129.659 28.0075H128.646V29.9991H140.654V28.0075H138.446C137.202 28.0075 136.115 27.8579 136.115 26.5005C136.161 26.0605 136.309 25.6375 136.547 25.2656L138.266 21.9291H151.226L154.447 28.0083H149.669V30H169.384V28.0075H165.246V28.0083ZM139.317 19.9535L144.514 10.1211H144.96L150.162 19.9535H139.317ZM205.834 28.0113V30H225.131V28.0113H220.155V3.05756H225.131V1.07139H205.834V3.05756H210.786V28.0113H205.834ZM229.419 15.0037C229.419 6.57174 238.828 0 248.124 0C257.369 0 266.941 6.56511 266.941 15.0037C266.941 23.4423 257.368 30 248.124 30C238.828 30 229.419 23.4357 229.419 15.0037ZM239.841 15.005C239.841 21.6115 240.803 28.0607 248.169 28.0607H248.169C255.558 28.0607 256.511 21.6546 256.509 15.005C256.509 8.3099 255.558 1.94926 248.169 1.94926C240.837 1.94926 239.841 8.36123 239.841 15.005ZM269.086 28.0113V30H281.341V28.0113H280.374C277.239 28.0113 276.024 27.6146 276.024 25.2736V6.70446H276.126L297.677 30H301.786V5.26516C301.786 4.23181 302.861 3.05756 305.388 3.05756H306.608V1.07139H294.302V3.05756H295.807C298.275 3.05756 299.621 3.81663 299.621 5.39265V18.1627H299.479L283.626 1.07139H269.239V3.0584H270.09C271.967 3.0584 273.887 4.33079 273.887 6.29263V25.0589C273.887 27.5617 272.26 28.0113 270.536 28.0113H269.086Z" fill="#006998"/>
</svg>
