<svg width="22" height="20" viewBox="0 0 22 20" fill="none" xmlns="http://www.w3.org/2000/svg">
<path d="M8.984 4.06001C9.38966 3.28743 9.94673 2.60445 10.622 2.05176C11.2973 1.49908 12.0769 1.08802 12.9144 0.843092C13.752 0.598163 14.6302 0.524377 15.4969 0.626134C16.3635 0.727891 17.2008 1.00311 17.9588 1.43538C18.7169 1.86765 19.3801 2.44812 19.909 3.14218C20.4378 3.83625 20.8216 4.6297 21.0372 5.47523C21.2529 6.32077 21.2961 7.20107 21.1643 8.06366C21.0325 8.92626 20.7283 9.75348 20.27 10.496C21.0721 11.2514 21.6289 12.2302 21.8681 13.3058C22.1073 14.3813 22.018 15.5038 21.6118 16.528C21.2055 17.5522 20.501 18.4307 19.5896 19.0498C18.6782 19.6688 17.6018 19.9999 16.5 20L8 19.999C6.90842 19.9982 5.82855 19.774 4.82687 19.3402C3.82518 18.9064 2.92287 18.2722 2.17546 17.4766C1.42806 16.6811 0.851369 15.7409 0.480896 14.7141C0.110423 13.6874 -0.0459989 12.5956 0.021258 11.5061C0.0885149 10.4166 0.378028 9.35238 0.871977 8.37895C1.36593 7.40552 2.05386 6.54348 2.89345 5.84587C3.73303 5.14827 4.70649 4.62986 5.75393 4.32257C6.80136 4.01527 7.9006 3.92658 8.984 4.06001ZM11.055 4.60401C12.0538 5.01804 12.9587 5.62962 13.7154 6.40205C14.472 7.17448 15.0647 8.09182 15.458 9.09901C16.5058 8.89818 17.5894 9.0048 18.578 9.40601C19.0416 8.41677 19.1294 7.29268 18.8252 6.24343C18.521 5.19417 17.8454 4.29142 16.9246 3.70357C16.0038 3.11572 14.9006 2.88292 13.8207 3.04861C12.7409 3.21429 11.7572 3.76714 11.055 4.60401ZM16.5 18C17.077 17.9999 17.6451 17.8572 18.1536 17.5845C18.6622 17.3118 19.0954 16.9175 19.4147 16.4369C19.734 15.9563 19.9296 15.4042 19.9839 14.8297C20.0383 14.2552 19.9498 13.6762 19.7262 13.1442C19.5027 12.6123 19.1511 12.1438 18.7028 11.7805C18.2544 11.4173 17.7232 11.1705 17.1564 11.0622C16.5896 10.9539 16.0049 10.9874 15.4542 11.1598C14.9194 11.3271 14.4328 11.6204 14.0353 12.0146C14.0223 12.0274 14 12.0183 14 12V12C14 10.8133 13.6481 9.65329 12.9888 8.66659C12.3295 7.6799 11.3925 6.91086 10.2961 6.45674C9.19974 6.00261 7.99334 5.88379 6.82945 6.1153C5.66557 6.34681 4.59647 6.91826 3.75736 7.75737C2.91824 8.59649 2.3468 9.66559 2.11528 10.8295C1.88377 11.9934 2.00259 13.1998 2.45672 14.2961C2.91085 15.3925 3.67988 16.3295 4.66658 16.9888C5.65327 17.6481 6.81331 18 8 18H16.5Z" fill="#272727"/>
</svg>
