<svg width="16" height="16" viewBox="0 0 16 16" fill="none" xmlns="http://www.w3.org/2000/svg">
<path d="M12.0207 11.078L14.876 13.9327L13.9327 14.876L11.078 12.0207C10.0158 12.8722 8.69468 13.3353 7.33334 13.3334C4.02134 13.3334 1.33334 10.6454 1.33334 7.33337C1.33334 4.02137 4.02134 1.33337 7.33334 1.33337C10.6453 1.33337 13.3333 4.02137 13.3333 7.33337C13.3353 8.69471 12.8722 10.0159 12.0207 11.078ZM10.6833 10.5834C11.5294 9.7133 12.0019 8.54699 12 7.33337C12 4.75471 9.91134 2.66671 7.33334 2.66671C4.75468 2.66671 2.66668 4.75471 2.66668 7.33337C2.66668 9.91137 4.75468 12 7.33334 12C8.54696 12.002 9.71327 11.5294 10.5833 10.6834L10.6833 10.5834Z" fill="#272727"/>
</svg>
