<svg width="26" height="21" viewBox="0 0 26 21" fill="none" xmlns="http://www.w3.org/2000/svg">
<path d="M3.87467 12.4406C3.86905 10.3431 4.94243 8.93529 7.25918 8.92967C7.98835 8.92827 8.6276 8.99992 9.26685 9.17273L9.26966 10.669L8.52083 10.6718L8.41826 9.76C8.11761 9.7052 7.69612 9.65322 7.31398 9.65322C5.57185 9.65603 4.9621 10.7449 4.96631 12.258C4.97053 14.2362 5.67581 15.0468 7.34629 15.044C7.69191 15.0426 8.08389 14.9976 8.4295 14.9218L8.57421 14.01L9.33007 14.0086L9.2795 15.4767C8.64165 15.6509 8.02066 15.7535 7.25497 15.7549C4.95788 15.7591 3.87889 14.6225 3.87467 12.4406Z" fill="#126FFF"/>
<path d="M10.336 15.0356L10.884 14.9976L10.8713 9.33289L10.1955 9.3343L10.1941 8.70488L11.7255 8.60092L11.8084 8.67397L11.8225 15.0328L12.4252 15.0314L12.4266 15.6523L10.3374 15.6566L10.336 15.0356Z" fill="#126FFF"/>
<path d="M13.5548 14.2362L13.5674 11.5738L12.9731 11.5752L12.9703 10.964L14.4118 10.8868L14.4947 10.95L14.4933 14.0788C14.4947 14.9176 15.0791 15.1002 15.5161 15.0988C16.0092 15.0974 16.4012 14.8684 16.6555 14.6956L16.6583 11.5668L16.0556 11.5682L16.0541 10.957L17.5041 10.891L17.5954 10.9542L17.5855 14.978L18.1883 15.0033L18.1897 15.6242L16.8479 15.6903L16.7749 15.6088L16.7103 15.1536C16.2368 15.5203 15.672 15.7577 15.1058 15.7591C14.0577 15.7591 13.5562 15.1213 13.5548 14.2362Z" fill="#126FFF"/>
<path d="M19.3572 15.5104L19.3431 9.31602L18.6758 9.31743L18.6744 8.68801L20.1987 8.58405L20.2802 8.6571L20.2872 11.2661C20.6413 11.0188 21.1246 10.8165 21.7091 10.8165C23.0957 10.8137 23.7645 11.7508 23.7673 13.129C23.7701 14.7616 22.6981 15.731 21.2286 15.7338C20.6258 15.7352 19.9402 15.6734 19.3572 15.5104ZM22.781 13.2218C22.7796 12.2004 22.3314 11.5077 21.4182 11.5091C20.9349 11.5105 20.5429 11.6581 20.2887 11.8309L20.2957 14.9232C20.55 14.9948 20.8801 15.0594 21.2538 15.058C22.3216 15.0552 22.7838 14.1898 22.781 13.2218Z" fill="#126FFF"/>
<path d="M2.78023 20.7523C2.75354 20.7523 2.72684 20.7509 2.70015 20.7467C2.54561 20.7242 2.40511 20.6371 2.3152 20.5092C2.21685 20.3673 2.11991 20.2212 2.02718 20.0751C1.09008 18.5957 0.467692 16.9632 0.179679 15.2224C-0.10974 13.4817 -0.0493275 11.7354 0.359512 10.0326C0.754301 8.38878 1.45537 6.85458 2.44305 5.47351C3.43072 4.09245 4.65583 2.93337 6.08326 2.02859C7.56126 1.09008 9.19381 0.469097 10.9359 0.179679C12.6767 -0.10974 14.423 -0.0493275 16.1258 0.359512C17.7696 0.754301 19.3038 1.45537 20.6849 2.44305C22.0659 3.43072 23.225 4.65584 24.1298 6.08326C24.5063 6.67615 24.8351 7.30416 25.109 7.94622C25.1779 8.10638 25.168 8.28621 25.0851 8.43935C25.0008 8.59249 24.8547 8.69646 24.6819 8.72596C24.422 8.76952 24.1691 8.62762 24.0652 8.38316C23.8165 7.7987 23.5158 7.22829 23.173 6.68879C22.3469 5.385 21.2876 4.26526 20.0259 3.36329C18.7629 2.46131 17.3622 1.82065 15.8603 1.46099C14.3064 1.08727 12.7118 1.03248 11.12 1.29661C9.52959 1.56074 8.03754 2.12834 6.68739 2.98395C5.3836 3.81006 4.26386 4.86939 3.36188 6.13103C2.45991 7.39267 1.81925 8.7948 1.45818 10.2953C1.08727 11.8506 1.03248 13.4452 1.29661 15.037C1.56074 16.6274 2.12834 18.118 2.98395 19.4696C3.06965 19.6045 3.15816 19.7379 3.24667 19.8672C3.41386 20.1088 3.36609 20.4446 3.13568 20.6301C3.03453 20.7087 2.90949 20.7523 2.78023 20.7523Z" fill="#126FFF"/>
</svg>
