<svg width="16" height="16" viewBox="0 0 16 16" fill="none" xmlns="http://www.w3.org/2000/svg">
<path fill-rule="evenodd" clip-rule="evenodd" d="M2 3.33329C2 2.9651 2.29848 2.66663 2.66667 2.66663H13.3333C13.7015 2.66663 14 2.9651 14 3.33329C14 3.70148 13.7015 3.99996 13.3333 3.99996H2.66667C2.29848 3.99996 2 3.70148 2 3.33329ZM2 7.99996C2 7.63177 2.29848 7.33329 2.66667 7.33329H13.3333C13.7015 7.33329 14 7.63177 14 7.99996C14 8.36815 13.7015 8.66663 13.3333 8.66663H2.66667C2.29848 8.66663 2 8.36815 2 7.99996ZM2 12.6666C2 12.2984 2.29848 12 2.66667 12H13.3333C13.7015 12 14 12.2984 14 12.6666C14 13.0348 13.7015 13.3333 13.3333 13.3333H2.66667C2.29848 13.3333 2 13.0348 2 12.6666Z" fill="#272727"/>
</svg>
